<svg width="80" height="80" viewBox="0 0 80 80" fill="none" xmlns="http://www.w3.org/2000/svg">
<path d="M40.0003 73.3333C49.205 73.3333 57.5383 69.6023 63.5705 63.5702C69.6027 57.538 73.3337 49.2047 73.3337 40C73.3337 30.7953 69.6027 22.462 63.5705 16.4298C57.5383 10.3976 49.205 6.66666 40.0003 6.66666C30.7957 6.66666 22.4623 10.3976 16.4301 16.4298C10.398 22.462 6.66699 30.7953 6.66699 40C6.66699 49.2047 10.398 57.538 16.4301 63.5702C22.4623 69.6023 30.7957 73.3333 40.0003 73.3333Z" stroke="#145CB8" stroke-width="8" stroke-linejoin="round"/>
<path fill-rule="evenodd" clip-rule="evenodd" d="M39.9997 18.3333C42.3008 18.3333 44.1663 20.1988 44.1663 22.5C44.1663 24.8012 42.3008 26.6667 39.9997 26.6667C37.6985 26.6667 35.833 24.8012 35.833 22.5C35.833 20.1988 37.6985 18.3333 39.9997 18.3333Z" fill="#145CB8"/>
<path d="M40.8333 56.6667V33.3333H39.1667H37.5" stroke="#145CB8" stroke-width="8" stroke-linecap="round" stroke-linejoin="round"/>
<path d="M35 56.6667H46.6667" stroke="#145CB8" stroke-width="8" stroke-linecap="round" stroke-linejoin="round"/>
</svg>
